<svg height="480pt" viewBox="0 0 480.00048 480" width="480pt" xmlns="http://www.w3.org/2000/svg"><path d="m312 48h-80v-8c-.027344-22.082031-17.917969-39.9726562-40-40h-16c-22.082031.0273438-39.972656 17.917969-40 40v8h-80c-30.914062.035156-55.9648438 25.085938-56 56v320c.0351562 30.914062 25.085938 55.964844 56 56h256c30.914062-.035156 55.964844-25.085938 56-56v-320c-.035156-30.914062-25.085938-55.964844-56-56zm-160 32v-40c0-13.253906 10.746094-24 24-24h16c13.253906 0 24 10.746094 24 24v40c0 4.417969 3.582031 8 8 8 33.191406 0 40 9.601562 40 24v8h-160v-8c0-14.398438 6.808594-24 40-24 4.417969 0 8-3.582031 8-8zm200 344c-.027344 22.082031-17.917969 39.972656-40 40h-256c-22.082031-.027344-39.972656-17.917969-40-40v-320c.027344-22.082031 17.917969-39.972656 40-40h80v8.144531c-17.65625.800781-48 5.917969-48 39.855469v16c0 4.417969 3.582031 8 8 8h176c4.417969 0 8-3.582031 8-8v-16c0-33.9375-30.34375-39.078125-48-39.855469v-8.144531h80c22.082031.027344 39.972656 17.917969 40 40zm0 0"/><path d="m184 72c13.253906 0 24-10.746094 24-24s-10.746094-24-24-24-24 10.746094-24 24 10.746094 24 24 24zm0-32c4.417969 0 8 3.582031 8 8s-3.582031 8-8 8-8-3.582031-8-8 3.582031-8 8-8zm0 0"/><path d="m64 184h64v16h-64zm0 0"/><path d="m464 88v-32c0-8.835938-7.164062-16-16-16h-32c-8.835938 0-16 7.164062-16 16v32c-8.835938 0-16 7.164062-16 16v248c-.011719 1.238281.261719 2.460938.800781 3.578125l23.199219 46.308594v30.113281c0 13.253906 10.746094 24 24 24s24-10.746094 24-24v-30.113281l23.199219-46.308594c.539062-1.117187.8125-2.339844.800781-3.578125v-248c0-8.835938-7.164062-16-16-16zm-20.945312 304h-22.109376l-16-32h54.109376zm-43.054688-48v-176h8v64c0 8.835938 7.164062 16 16 16h16c8.835938 0 16-7.164062 16-16v-64h8v176zm40-112h-16v-64h16zm24-80h-64v-16h64zm-48-96h32v32h-32zm-16 48h64v16h-64zm40 328c0 4.417969-3.582031 8-8 8s-8-3.582031-8-8v-24h16zm0 0"/><path d="m160 184h144v16h-144zm0 0"/><path d="m64 232h64v16h-64zm0 0"/><path d="m160 232h144v16h-144zm0 0"/><path d="m64 280h64v16h-64zm0 0"/><path d="m160 280h144v16h-144zm0 0"/><path d="m64 328h64v16h-64zm0 0"/><path d="m160 328h144v16h-144zm0 0"/><path d="m64 376h64v16h-64zm0 0"/><path d="m160 376h144v16h-144zm0 0"/></svg>